<mxfile host="app.diagrams.net" agent="Mozilla/5.0 (Windows NT 10.0; Win64; x64) AppleWebKit/537.36 (KHTML, like Gecko) Chrome/131.0.0.0 Safari/537.36" version="24.9.2">
  <diagram name="Page-1" id="jIjD0eeuVkzSdPgPmyts">
    <mxGraphModel dx="1434" dy="746" grid="1" gridSize="10" guides="1" tooltips="1" connect="1" arrows="1" fold="1" page="1" pageScale="1" pageWidth="850" pageHeight="1100" math="0" shadow="0">
      <root>
        <mxCell id="0" />
        <mxCell id="1" parent="0" />
        <mxCell id="6Ic76b_adWoy3Qu627_q-1" value="" style="shape=image;verticalLabelPosition=bottom;labelBackgroundColor=default;verticalAlign=top;aspect=fixed;imageAspect=0;image=https://seeklogo.com/images/S/swaggerhub-logo-52BE4455D6-seeklogo.com.png;fontFamily=Times New Roman;fontSize=14;fontStyle=1" vertex="1" parent="1">
          <mxGeometry x="30" y="320" width="40" height="40" as="geometry" />
        </mxCell>
        <mxCell id="6Ic76b_adWoy3Qu627_q-2" value="" style="outlineConnect=0;dashed=0;verticalLabelPosition=bottom;verticalAlign=top;align=center;html=1;shape=mxgraph.aws3.documents;fillColor=#759C3E;gradientColor=none;fontFamily=Times New Roman;fontSize=14;fontStyle=1" vertex="1" parent="1">
          <mxGeometry x="170" y="240" width="30" height="40" as="geometry" />
        </mxCell>
        <mxCell id="6Ic76b_adWoy3Qu627_q-7" value="" style="shape=image;html=1;verticalAlign=top;verticalLabelPosition=bottom;labelBackgroundColor=#ffffff;imageAspect=0;aspect=fixed;image=https://cdn3.iconfinder.com/data/icons/survey-rating/512/Survey_rating_rate-32-128.png;fontFamily=Times New Roman;fontSize=14;fontStyle=1" vertex="1" parent="1">
          <mxGeometry x="330" y="300" width="80" height="80" as="geometry" />
        </mxCell>
        <mxCell id="6Ic76b_adWoy3Qu627_q-3" value="" style="outlineConnect=0;dashed=0;verticalLabelPosition=bottom;verticalAlign=top;align=center;html=1;shape=mxgraph.aws3.documents;fillColor=#759C3E;gradientColor=none;fontFamily=Times New Roman;fontSize=14;fontStyle=1" vertex="1" parent="1">
          <mxGeometry x="170" y="400" width="30" height="40" as="geometry" />
        </mxCell>
        <mxCell id="6Ic76b_adWoy3Qu627_q-8" value="" style="shape=mxgraph.cisco.people.androgenous_person;html=1;pointerEvents=1;dashed=0;fillColor=#036897;strokeColor=#ffffff;strokeWidth=2;verticalLabelPosition=bottom;verticalAlign=top;align=center;outlineConnect=0;fontFamily=Times New Roman;fontSize=14;fontStyle=1" vertex="1" parent="1">
          <mxGeometry x="340" y="440" width="60" height="62" as="geometry" />
        </mxCell>
        <mxCell id="6Ic76b_adWoy3Qu627_q-41" value="" style="edgeStyle=orthogonalEdgeStyle;rounded=0;orthogonalLoop=1;jettySize=auto;html=1;" edge="1" parent="1" source="6Ic76b_adWoy3Qu627_q-9" target="6Ic76b_adWoy3Qu627_q-13">
          <mxGeometry relative="1" as="geometry" />
        </mxCell>
        <mxCell id="6Ic76b_adWoy3Qu627_q-9" value="" style="sketch=0;pointerEvents=1;shadow=0;dashed=0;html=1;strokeColor=none;fillColor=#505050;labelPosition=center;verticalLabelPosition=bottom;verticalAlign=top;outlineConnect=0;align=center;shape=mxgraph.office.concepts.tasks;fontFamily=Times New Roman;fontSize=14;fontStyle=1" vertex="1" parent="1">
          <mxGeometry x="490" y="452" width="30" height="52" as="geometry" />
        </mxCell>
        <mxCell id="6Ic76b_adWoy3Qu627_q-10" value="" style="sketch=0;pointerEvents=1;shadow=0;dashed=0;html=1;strokeColor=none;fillColor=#505050;labelPosition=center;verticalLabelPosition=bottom;verticalAlign=top;outlineConnect=0;align=center;shape=mxgraph.office.concepts.tasks;fontFamily=Times New Roman;fontSize=14;fontStyle=1" vertex="1" parent="1">
          <mxGeometry x="490" y="326" width="30" height="52" as="geometry" />
        </mxCell>
        <mxCell id="6Ic76b_adWoy3Qu627_q-11" value="" style="sketch=0;pointerEvents=1;shadow=0;dashed=0;html=1;strokeColor=none;fillColor=#505050;labelPosition=center;verticalLabelPosition=bottom;verticalAlign=top;outlineConnect=0;align=center;shape=mxgraph.office.concepts.tasks;fontFamily=Times New Roman;fontSize=14;fontStyle=1" vertex="1" parent="1">
          <mxGeometry x="490" y="188" width="30" height="52" as="geometry" />
        </mxCell>
        <mxCell id="6Ic76b_adWoy3Qu627_q-12" value="" style="aspect=fixed;sketch=0;html=1;dashed=0;whitespace=wrap;verticalLabelPosition=bottom;verticalAlign=top;fillColor=#2875E2;strokeColor=#ffffff;points=[[0.005,0.63,0],[0.1,0.2,0],[0.9,0.2,0],[0.5,0,0],[0.995,0.63,0],[0.72,0.99,0],[0.5,1,0],[0.28,0.99,0]];shape=mxgraph.kubernetes.icon2;kubernetesLabel=1;prIcon=api;fontFamily=Times New Roman;fontSize=14;fontStyle=1" vertex="1" parent="1">
          <mxGeometry x="250" y="314" width="50" height="48" as="geometry" />
        </mxCell>
        <mxCell id="6Ic76b_adWoy3Qu627_q-13" value="" style="sketch=0;outlineConnect=0;fontColor=#232F3E;gradientColor=none;fillColor=#01A88D;strokeColor=none;dashed=0;verticalLabelPosition=bottom;verticalAlign=top;align=center;html=1;fontSize=14;fontStyle=1;aspect=fixed;pointerEvents=1;shape=mxgraph.aws4.textract_analyze_lending;fontFamily=Times New Roman;" vertex="1" parent="1">
          <mxGeometry x="630" y="311" width="54" height="54" as="geometry" />
        </mxCell>
        <mxCell id="6Ic76b_adWoy3Qu627_q-14" value="Answer Research Questions" style="rounded=0;whiteSpace=wrap;html=1;fontFamily=Times New Roman;fontSize=14;fontStyle=1" vertex="1" parent="1">
          <mxGeometry x="710" y="318" width="120" height="40" as="geometry" />
        </mxCell>
        <mxCell id="6Ic76b_adWoy3Qu627_q-15" value="Swagger Editor" style="text;html=1;align=center;verticalAlign=middle;resizable=0;points=[];autosize=1;strokeColor=none;fillColor=none;fontFamily=Times New Roman;fontSize=14;fontStyle=1" vertex="1" parent="1">
          <mxGeometry x="5" y="366" width="110" height="30" as="geometry" />
        </mxCell>
        <mxCell id="6Ic76b_adWoy3Qu627_q-16" value="Open API Doc: Antipattern" style="text;html=1;align=center;verticalAlign=middle;resizable=0;points=[];autosize=1;strokeColor=none;fillColor=none;fontFamily=Times New Roman;fontSize=14;fontStyle=1" vertex="1" parent="1">
          <mxGeometry x="95" y="452" width="180" height="30" as="geometry" />
        </mxCell>
        <mxCell id="6Ic76b_adWoy3Qu627_q-17" value="Open API Doc: Pattern" style="text;html=1;align=center;verticalAlign=middle;resizable=0;points=[];autosize=1;strokeColor=none;fillColor=none;fontFamily=Times New Roman;fontSize=14;fontStyle=1" vertex="1" parent="1">
          <mxGeometry x="110" y="200" width="150" height="30" as="geometry" />
        </mxCell>
        <mxCell id="6Ic76b_adWoy3Qu627_q-18" value="API Snippets" style="text;html=1;align=center;verticalAlign=middle;resizable=0;points=[];autosize=1;strokeColor=none;fillColor=none;fontFamily=Times New Roman;fontSize=14;fontStyle=1" vertex="1" parent="1">
          <mxGeometry x="220" y="366" width="100" height="30" as="geometry" />
        </mxCell>
        <mxCell id="6Ic76b_adWoy3Qu627_q-19" value="Design Survey" style="text;html=1;align=center;verticalAlign=middle;resizable=0;points=[];autosize=1;strokeColor=none;fillColor=none;fontFamily=Times New Roman;fontSize=14;fontStyle=1" vertex="1" parent="1">
          <mxGeometry x="300" y="270" width="110" height="30" as="geometry" />
        </mxCell>
        <mxCell id="6Ic76b_adWoy3Qu627_q-20" value="Participant" style="text;html=1;align=center;verticalAlign=middle;resizable=0;points=[];autosize=1;strokeColor=none;fillColor=none;fontFamily=Times New Roman;fontSize=14;fontStyle=1" vertex="1" parent="1">
          <mxGeometry x="330" y="510" width="80" height="30" as="geometry" />
        </mxCell>
        <mxCell id="6Ic76b_adWoy3Qu627_q-21" value="Comprehension Task" style="text;html=1;align=center;verticalAlign=middle;resizable=0;points=[];autosize=1;strokeColor=none;fillColor=none;fontFamily=Times New Roman;fontSize=14;fontStyle=1" vertex="1" parent="1">
          <mxGeometry x="435" y="158" width="140" height="30" as="geometry" />
        </mxCell>
        <mxCell id="6Ic76b_adWoy3Qu627_q-22" value="Rate Understandability" style="text;html=1;align=center;verticalAlign=middle;resizable=0;points=[];autosize=1;strokeColor=none;fillColor=none;fontFamily=Times New Roman;fontSize=14;fontStyle=1" vertex="1" parent="1">
          <mxGeometry x="435" y="300" width="150" height="30" as="geometry" />
        </mxCell>
        <mxCell id="6Ic76b_adWoy3Qu627_q-23" value="Rate Readability" style="text;html=1;align=center;verticalAlign=middle;resizable=0;points=[];autosize=1;strokeColor=none;fillColor=none;fontFamily=Times New Roman;fontSize=14;fontStyle=1" vertex="1" parent="1">
          <mxGeometry x="455" y="502" width="120" height="30" as="geometry" />
        </mxCell>
        <mxCell id="6Ic76b_adWoy3Qu627_q-24" value="Analyze Survey Data" style="text;html=1;align=center;verticalAlign=middle;resizable=0;points=[];autosize=1;strokeColor=none;fillColor=none;fontFamily=Times New Roman;fontSize=14;fontStyle=1" vertex="1" parent="1">
          <mxGeometry x="600" y="390" width="140" height="30" as="geometry" />
        </mxCell>
        <mxCell id="6Ic76b_adWoy3Qu627_q-25" value="" style="endArrow=classic;html=1;rounded=0;entryX=0.18;entryY=0.84;entryDx=0;entryDy=0;entryPerimeter=0;exitX=1;exitY=0.5;exitDx=0;exitDy=0;" edge="1" parent="1" source="6Ic76b_adWoy3Qu627_q-1" target="6Ic76b_adWoy3Qu627_q-2">
          <mxGeometry width="50" height="50" relative="1" as="geometry">
            <mxPoint x="70" y="334" as="sourcePoint" />
            <mxPoint x="120" y="284" as="targetPoint" />
          </mxGeometry>
        </mxCell>
        <mxCell id="6Ic76b_adWoy3Qu627_q-26" value="" style="endArrow=classic;html=1;rounded=0;entryX=0.18;entryY=0.84;entryDx=0;entryDy=0;entryPerimeter=0;" edge="1" parent="1">
          <mxGeometry width="50" height="50" relative="1" as="geometry">
            <mxPoint x="70" y="340" as="sourcePoint" />
            <mxPoint x="170" y="408" as="targetPoint" />
          </mxGeometry>
        </mxCell>
        <mxCell id="6Ic76b_adWoy3Qu627_q-27" value="" style="endArrow=classic;html=1;rounded=0;entryX=0.1;entryY=0.2;entryDx=0;entryDy=0;entryPerimeter=0;" edge="1" parent="1" target="6Ic76b_adWoy3Qu627_q-12">
          <mxGeometry width="50" height="50" relative="1" as="geometry">
            <mxPoint x="200" y="270" as="sourcePoint" />
            <mxPoint x="250" y="220" as="targetPoint" />
          </mxGeometry>
        </mxCell>
        <mxCell id="6Ic76b_adWoy3Qu627_q-28" value="" style="endArrow=classic;html=1;rounded=0;entryX=0.14;entryY=0.729;entryDx=0;entryDy=0;entryPerimeter=0;" edge="1" parent="1" target="6Ic76b_adWoy3Qu627_q-12">
          <mxGeometry width="50" height="50" relative="1" as="geometry">
            <mxPoint x="190" y="408" as="sourcePoint" />
            <mxPoint x="240" y="358" as="targetPoint" />
          </mxGeometry>
        </mxCell>
        <mxCell id="6Ic76b_adWoy3Qu627_q-31" value="" style="endArrow=classic;html=1;rounded=0;" edge="1" parent="1" target="6Ic76b_adWoy3Qu627_q-7">
          <mxGeometry width="50" height="50" relative="1" as="geometry">
            <mxPoint x="295" y="340" as="sourcePoint" />
            <mxPoint x="345" y="290" as="targetPoint" />
          </mxGeometry>
        </mxCell>
        <mxCell id="6Ic76b_adWoy3Qu627_q-33" value="" style="endArrow=classic;html=1;rounded=0;exitX=0.5;exitY=1;exitDx=0;exitDy=0;" edge="1" parent="1" source="6Ic76b_adWoy3Qu627_q-7" target="6Ic76b_adWoy3Qu627_q-8">
          <mxGeometry width="50" height="50" relative="1" as="geometry">
            <mxPoint x="400" y="410" as="sourcePoint" />
            <mxPoint x="450" y="360" as="targetPoint" />
          </mxGeometry>
        </mxCell>
        <mxCell id="6Ic76b_adWoy3Qu627_q-34" value="" style="endArrow=classic;html=1;rounded=0;" edge="1" parent="1" target="6Ic76b_adWoy3Qu627_q-11">
          <mxGeometry width="50" height="50" relative="1" as="geometry">
            <mxPoint x="410" y="480" as="sourcePoint" />
            <mxPoint x="430" y="210" as="targetPoint" />
            <Array as="points">
              <mxPoint x="420" y="480" />
              <mxPoint x="420" y="350" />
              <mxPoint x="420" y="214" />
            </Array>
          </mxGeometry>
        </mxCell>
        <mxCell id="6Ic76b_adWoy3Qu627_q-35" value="" style="endArrow=classic;html=1;rounded=0;" edge="1" parent="1">
          <mxGeometry width="50" height="50" relative="1" as="geometry">
            <mxPoint x="420" y="350" as="sourcePoint" />
            <mxPoint x="480" y="350" as="targetPoint" />
          </mxGeometry>
        </mxCell>
        <mxCell id="6Ic76b_adWoy3Qu627_q-37" value="" style="endArrow=classic;html=1;rounded=0;" edge="1" parent="1">
          <mxGeometry width="50" height="50" relative="1" as="geometry">
            <mxPoint x="410" y="480" as="sourcePoint" />
            <mxPoint x="480" y="480" as="targetPoint" />
          </mxGeometry>
        </mxCell>
        <mxCell id="6Ic76b_adWoy3Qu627_q-39" value="" style="endArrow=classic;html=1;rounded=0;" edge="1" parent="1" target="6Ic76b_adWoy3Qu627_q-13">
          <mxGeometry width="50" height="50" relative="1" as="geometry">
            <mxPoint x="520" y="220" as="sourcePoint" />
            <mxPoint x="590" y="280" as="targetPoint" />
            <Array as="points">
              <mxPoint x="657" y="220" />
            </Array>
          </mxGeometry>
        </mxCell>
        <mxCell id="6Ic76b_adWoy3Qu627_q-40" value="" style="endArrow=classic;html=1;rounded=0;" edge="1" parent="1">
          <mxGeometry width="50" height="50" relative="1" as="geometry">
            <mxPoint x="520" y="350" as="sourcePoint" />
            <mxPoint x="620" y="350" as="targetPoint" />
          </mxGeometry>
        </mxCell>
        <mxCell id="6Ic76b_adWoy3Qu627_q-42" value="" style="endArrow=classic;html=1;rounded=0;" edge="1" parent="1">
          <mxGeometry width="50" height="50" relative="1" as="geometry">
            <mxPoint x="690" y="340" as="sourcePoint" />
            <mxPoint x="710" y="340" as="targetPoint" />
          </mxGeometry>
        </mxCell>
      </root>
    </mxGraphModel>
  </diagram>
</mxfile>
